<?xml version="1.0" encoding="utf-8"?>
<!-- Generator: Adobe Illustrator 16.0.4, SVG Export Plug-In . SVG Version: 6.00 Build 0)  -->
<!DOCTYPE svg PUBLIC "-//W3C//DTD SVG 1.1//EN" "http://www.w3.org/Graphics/SVG/1.1/DTD/svg11.dtd" [
	<!ENTITY st0 "fill:#E27C34;">
	<!ENTITY st1 "fill:#B3464E;">
	<!ENTITY st2 "fill:#2E2558;">
	<!ENTITY st3 "fill:#FFFFFF;">
]>
<svg version="1.1" id="Layer_1" xmlns="http://www.w3.org/2000/svg" xmlns:xlink="http://www.w3.org/1999/xlink" x="0px" y="0px"
	 width="320.619px" height="264.948px" viewBox="0 0 320.619 264.948" style="enable-background:new 0 0 320.619 264.948;"
	 xml:space="preserve">
<path style="&st2;" d="M155.896,81.82c-0.119-1.371-0.281-2.733-0.48-4.078c-0.352-2.369-0.721-4.905-1.466-7.188
	c-2.637-8.081-7.687-15.222-13.499-21.339c-2.172-2.284-4.472-4.457-6.847-6.55c-3.741-2.944-7.956-5.58-10.67-9.598
	c-2.01-2.981-3.737-7.544-8.229-6.047c-0.979,0.979-0.734,3.183-1.12,5.224c-0.078,0.408-0.181,0.81-0.334,1.189
	c-0.113,4.555-9.515,1.421-7.947,6.122c0.344,1.034,2.948,2.337,3.817,2.877c4.227,2.626,8.756,4.767,12.78,7.715
	c2.318,1.699,4.529,3.54,6.595,5.538c3.968,3.84,7.7,8.275,9.364,13.63c0.868,2.788,1.778,6.776,1.347,9.703
	c-0.403,2.744-1.27,5.385-2.578,7.774c-0.786,0.764-1.712,1.45-2.805,2.041c-1.125,0.609-2.348,1.055-3.639,1.368
	c-1.287,0.321-2.642,0.507-4.027,0.603c-2.594,0.229-5.457-0.047-8.297-0.515c-1.109-0.183-2.212-0.402-3.308-0.664
	c-6.112-2.354-12.659-5.527-19.371-7.791c-1.678-0.565-3.367-1.075-5.067-1.501c-3.822-0.959-7.66-1.931-11.631-1.846
	c-3.898,0.083-7.656,1.189-11.155,2.867c-6.913,3.315-13.603,8.485-16.762,15.648c-3.585,8.128-4.336,17.798-4.554,26.59
	c-0.069,2.795,0.032,5.594,0.38,8.37c0.301,2.405,0.733,4.794,1.279,7.156c0.644,2.784,1.434,5.533,2.325,8.248
	c0.749,2.247,1.573,4.483,2.473,6.726c0.436,0.74,0.822,1.482,1.177,2.229c0.356,0.744,0.681,1.49,0.993,2.258
	c8.007,18.072,4.041,47.582,18.73,59.094c0.385,0.164,0.748,0.391,1.068,0.689c0.065,0.061,0.101,0.096,0.135,0.133
	c0.046,0.023,0.092,0.045,0.17,0.09c0.189,0.113,0.384,0.219,0.581,0.316c0.127,0.061,0.208,0.102,0.262,0.129
	c0.052,0.018,0.094,0.033,0.176,0.062c0.04,0.016,0.081,0.031,0.123,0.045c0.7,0.086,1.409,0.172,2.124,0.203
	c0.878,0.041,1.759,0.02,2.605-0.059c0.62-0.057,1.266-0.143,1.938-0.262s1.371-0.27,2.096-0.453
	c0.294-0.062,0.604-0.156,0.903-0.234c6.752-1.74,6.76-14.969,8.034-20.379c1.292-5.479,1.838-11.438,4.917-16.293
	c2.637-4.156,6.34-8.477,10.862-10.609c3.012-1.42,11.22,0.363,12.93-2.717c0.304-0.546-2.227-3.331-3.846-5.654
	c-0.18-0.258-0.348-0.51-0.5-0.754c-1.314-2.076,0.15-3.669,0.881-5.432c-0.35,0.015-0.7,0.025-1.048,0.066
	c-0.248,0.028-0.484-0.014-0.708-0.091c-0.16,0.132-0.316,0.265-0.485,0.39c-0.218,0.163-0.442,0.321-0.669,0.479
	c-1.887,1.559-3.887,3.559-5.918,4.655c-0.186,0.116-0.37,0.234-0.555,0.351c-1.112,0.695-2.281,1.283-3.535,1.699
	c-5.758,1.912-12.449-1.162-14.917-6.66c-1.932-4.301,3.661-7.366,6.728-8.848c2.318-1.12,4.799-1.85,7.29-2.479
	c4.495-1.133,9.124-1.967,13.307-4.059c8.631-4.32,16.218-11.077,22.475-18.354c1.728-2.009,3.317-4.136,4.764-6.355
	c2.428-3.729,4.629-7.625,6.611-11.608c2.282-4.583,3.462-9.628,3.822-14.724C156.201,87.912,156.162,84.862,155.896,81.82z"/>
<path style="&st2;" d="M83.114,144.759c0,0-0.389,0.617-1.032,1.673c-0.636,1.077-1.521,2.592-2.536,4.323
	c-4.055,6.924-10.139,17.309-10.139,17.309l0,0L26.033,150.48l17.49-27.519c0,0,7.109-0.12,14.217-0.24
	c2.368-0.046,4.737-0.091,6.84-0.139c2.847-0.422,5.02-0.383,6.678,0.449c1.658,0.832,2.801,2.458,3.587,5.208
	c0.824,1.646,1.752,3.497,2.681,5.348c0.929,1.852,1.859,3.714,2.69,5.375C81.875,142.284,83.114,144.759,83.114,144.759z"/>
<path style="&st2;" d="M118.948,190.759v-20.115c0-2.849-0.952-4.848-2.847-5.992c-0.166-0.178-0.322-0.354-0.467-0.527
	c-0.145-0.174-0.28-0.345-0.402-0.515c-0.236-0.329-0.442-0.679-0.61-1.042c-0.084-0.182-0.159-0.367-0.223-0.555
	c-1.062-3.091,1.968-5.09,4.011-6.77c1.618-1.33,2.935-2.832,4.345-4.363c1.185-1.286,2.601-2.491,4.447-2.491
	c2.846,0,4.171,3.424,3.984,10.271v12.411c-0.191,5.992-0.285,10.271-0.285,12.84c0,1.199,0.068,2.219,0.205,3.058
	c0.045,0.279,0.103,0.536,0.203,0.751c0.386,0.828,1.184,1.148,2.049,1.093c0.846-0.055,1.62-0.408,2.356-0.805
	c1.156-0.621,2.328-1.174,3.527-1.706c0.077-0.035,0.79-0.286,0.79-0.404c0,1.95,0.057,4.054-0.66,5.899
	c-0.562,1.447-1.317,2.827-2.171,4.121c-0.771,1.168-1.611,2.323-2.66,3.26c-0.566,0.506-1.205,0.979-1.869,1.348
	c-0.715,0.397-1.531,0.733-2.327,0.93c-1.096,0.271-2.297,0.431-3.427,0.431C121.603,201.886,118.948,198.182,118.948,190.759z
	 M140.578,183.411c0-0.145,0-0.309,0-0.488c0-5.552,0-25.529,0-25.547c0-1.854-0.539-3.71,0.292-5.482
	c0.569-1.213,1.643-2.312,2.977-2.613c1.528-0.348,3.107-0.141,4.651-0.047c1.367,0.082,2.761,0.052,3.958,0.824
	c1.189,0.769,1.582,2.098,1.5,3.467c0,0.855-0.098,2.287-0.285,4.279c-0.76,5.992-1.138,12.84-1.138,20.544
	c0,2.142,0.48,3.881,1.441,5.217c0.213,0.296,0.442,0.584,0.768,0.762c0.535,0.293,1.085,0.821,1.478,1.283
	c0.37,0.434,0.626,0.939,0.76,1.494c0.258,1.071,0.193,2.318-0.318,3.308c-0.287,0.557-0.74,1.143-1.223,1.545
	c-0.16,0.133-0.33,0.259-0.513,0.375c-0.383,0.244-0.945,0.323-1.363,0.522c-0.447,0.214-0.884,0.478-1.234,0.832
	c-0.847,0.855-0.699,1.991-0.673,3.097c0.041,1.736,0.005,4.138-1.952,4.848c-0.536,0.194-1.156,0.256-1.723,0.256
	c-0.216,0-0.427-0.012-0.633-0.036c-3.166-0.37-5.224-3.586-6.171-9.649C140.729,189.355,140.578,186.291,140.578,183.411z"/>
<path style="&st2;" d="M162.208,180.06v-9.844c0-2.568-0.854-4.848-2.561-6.848c-0.952-1.19-1.836-2.721-1.773-4.301
	c0.018-0.459,0.174-0.95,0.386-1.355c1.13-2.165,3.485-1.59,5.407-1.971c2.269-0.448,2.296-2.49,2.848-4.301
	c0.683-2.244,3.466-4.214,5.393-2.047c1.289,1.448,1.736,4.359,1.975,6.19c0.26,2.001,0.279,4.057,0.279,6.072
	c0,0,0,33.781,0,33.811c0,1.546,0.086,3.05-0.803,4.401c-0.776,1.18-1.951,1.771-3.33,1.948c-3.01,0.385-6.941,0.302-7.86-3.232
	c-0.228-0.872-0.245-1.794-0.245-2.689v-7.275C162.111,184.914,162.208,182.059,162.208,180.06z M196.363,163.368v15.835
	c0,3.144,0.756,5.424,2.275,6.848c1.139,0.856,1.709,2,1.709,3.424c-1.709,8.278-4.555,12.411-8.539,12.411
	c-4.744,0-7.213-4.988-7.4-14.979v-20.971c0.217-2.281-0.248-3.864-1.395-4.75c-0.143-0.11-0.297-0.21-0.465-0.299
	c-1.518,0.01-4.518,0.01-6.518,1.01c0-2,0-4,0.762-6.073c0.069-0.247,0.146-0.487,0.227-0.722c1.387-3.986,4.417-6.225,9.098-6.714
	C192.755,148.677,196.171,153.672,196.363,163.368z"/>
<path style="&st0;" d="M266.377,141.349c-1.253,0.01-2.073,0.753-2.524,2.293c-0.401,1.368,0.314,2.973,1.023,4.113
	c0.93,1.498,2.324,3.575,0.781,5.193c-1.042,1.092-2.628,1.627-3.851,2.479c-0.647,0.451-1.245,1.153-1.438,1.941
	c-0.392,1.597,0.931,3.295,2.236,4.02c1.303,0.723,2.82,0.689,4.223,1.069c0.788,0.214,1.585,0.622,2.164,1.208
	c1.834,1.856,2.279,4.445,2.758,6.898c0.352,1.794,0.552,3.871,0.604,6.232c0.083,3.827-3.605,23.414-10.152,13.462
	c-2.627-3.994-3.271-8.924-2.531-13.577c0.668-4.201,3.252-9.137,0.682-13.167c-1.526-2.395-5.705-1.153-7.459-0.057
	c-12.324,7.708-10.092,27.575,1.473,34.839c7.922,4.974,17.775,3.895,23.363-3.91c2.021-2.823,3.24-6.163,3.961-9.531
	c0.742-3.479,1.28-7.057,1.367-10.616c0.087-3.587-0.297-7.343-0.758-10.896c-0.385-2.951-1.004-5.876-2.023-8.677
	c-1.48-4.066-3.777-8.422-7.526-10.816c-1.58-1.01-3.284-1.785-5.087-2.301C267.191,141.413,266.764,141.347,266.377,141.349z"/>
<path style="&st3;" d="M99.776,118.02c-1.499,2.701,0.999,6.652,6.558,9.727c6.786,3.752,15.556,4.771,19.588,2.277
	c1.196-0.737,1.827-1.706,1.966-2.794L99.776,118.02z"/>
<path style="&st1;" d="M241.872,143.638c-2.053-1.633-4.771-4.626-4.123-7.515c0.58-2.591,4.112-3.728,6.29-2.431
	c1.477,0.881,2.117,2.58,2.744,4.09c0.352,0.848,0.754,1.672,1.127,2.51c0.119,0.269,0.243,0.535,0.373,0.803
	c0.389,0.8,0.828,1.592,1.336,2.37c0.146,0.238,0.302,0.474,0.463,0.704c1.297,1.845,3.055,3.414,5.324,3.574
	c-1.438-0.102-2.84-0.15-4.26-0.436c-2.423-0.486-4.963-1.164-7.168-2.306C243.226,144.611,242.521,144.155,241.872,143.638z"/>
<path style="&st2;" d="M250.867,114.891c-1.926-3.49-5.719-8.318-10.209-8.084c-4.026,0.212-6.626,5.215-5.236,8.804
	c0.945,2.438,3.329,3.824,5.43,5.148c1.183,0.743,2.312,1.551,3.474,2.323c0.372,0.247,0.741,0.5,1.105,0.764
	c1.101,0.785,2.176,1.64,3.214,2.6c0.318,0.28,0.632,0.571,0.938,0.873c2.434,2.408,4.336,5.439,4.001,8.881
	c0.213-2.181,0.493-4.292,0.428-6.489c-0.112-3.754-0.483-7.733-1.636-11.32C251.984,117.165,251.477,115.994,250.867,114.891z"/>
<path style="&st0;" d="M261.598,121.624c1.719-3.829,5.286-9.223,10.02-9.362c4.245-0.125,7.404,4.903,6.255,8.792
	c-0.781,2.636-3.164,4.299-5.256,5.869c-1.176,0.881-2.293,1.829-3.445,2.739c-0.367,0.291-0.734,0.588-1.096,0.895
	c-1.087,0.919-2.142,1.912-3.146,3.006c-0.313,0.324-0.616,0.656-0.91,0.998c-2.346,2.737-4.084,6.083-3.435,9.667
	c-0.413-2.269-0.89-4.463-1.007-6.776c-0.203-3.948-0.159-8.157,0.738-12.021C260.625,124.106,261.054,122.835,261.598,121.624z"/>
<path style="&st1;" d="M230.926,218.434c-2.466-2.625-5.384-5.194-7.279-8.273c-2.292-3.723-1.896-8.045,1.621-10.794
	c3.663-2.863,6.776-3.177,9.337-0.936c1.593,1.694,1.713,3.758,0.366,6.188c-0.861,1.555-1.602,3.916-1.001,5.668
	c0.852,2.483,3.697,3.982,5.705,5.426c5.732,4.12,11.021,11.239,7.441,18.423c-2.243,4.503-6.395,7.925-11.005,9.811
	c-1.832,0.749-3.74,1.351-5.698,1.664c-7.68,1.229-16.072-3.035-20.76-9.025c-2.982-3.811-3.941-7.864-3.425-12.643
	c0.278-2.572,0.554-5.391,1.521-7.809c0.113-0.281,0.234-0.557,0.368-0.824c0.977-1.741,2.235-2.594,3.583-2.743
	c0.193-0.021,0.389-0.025,0.586-0.015c0.762,0.041,1.522,0.938,2.064,1.407c1.119,0.968,2.24,1.811,3.784,1.665
	c1.72-0.163,2.876-1.692,4.49-1.943c4.051-0.63,1.588,5.239,0.6,6.678c-1.109,1.616-2.927,2.296-4.253,3.673
	c-2.43,2.526-4.221,7.321-1.139,10.184c4.81,4.466,12.428,0.517,15.336-4.264c1.096-1.8,1.779-4.027,1.242-6.111
	C233.869,221.729,232.386,219.987,230.926,218.434z"/>
<path style="&st1;" d="M215.644,163.704c0,1.861-0.316,3.682-0.357,5.537c-0.148,6.741,1.381,14.843,6.372,19.027
	c1.444,1.211,3.843,1.752,5.255,0.234c1.35-1.45,1.496-4.395,1.496-6.4c0-5.5-0.584-12.119-4.146-16.189
	c-1.125-1.285-2.751-3.026-4.242-3.701c-1.459-0.66-2.188-1.656-2.188-2.984c0-2.161,1.622-4.631,2.525-6.413
	c-0.396,0.684-0.796,1.366-1.166,2.069c1.089-2.069,2.223-4.879,4.144-6.059c2.341-1.437,5.413,0.26,7.584,1.411
	c1.71,0.906,3.209,2.221,4.501,3.799c2.911,3.555,4.864,8.04,5.288,12.943c0.093,1.078,0.146,2.162,0.162,3.248
	c0.017,1.086-0.006,2.174-0.066,3.259c-0.062,1.084-0.16,2.166-0.298,3.24s-0.312,2.141-0.525,3.195
	c-0.515,2.544-1.294,4.995-2.495,7.213c-2.082,3.844-5.221,7.483-8.885,9.205c-4.987,2.343-9.709,2.536-14.764,0.475
	c-1.902-0.776-3.658-1.923-5.225-3.397c-3.023-2.849-5.744-6.633-6.623-11.122c-0.32-1.634-0.426-3.313-0.439-4.984
	c-0.031-3.485,0.042-6.936,1.578-10.035c1.252-2.525,3.129-4.777,5.338-6.175c1.104-0.697,2.982-1.872,4.26-1.872
	C214.669,159.228,215.643,160.72,215.644,163.704z"/>
</svg>
