<?xml version="1.0" encoding="utf-8"?>
<!-- Generator: Adobe Illustrator 16.0.4, SVG Export Plug-In . SVG Version: 6.00 Build 0)  -->
<!DOCTYPE svg PUBLIC "-//W3C//DTD SVG 1.1//EN" "http://www.w3.org/Graphics/SVG/1.1/DTD/svg11.dtd" [
	<!ENTITY st0 "fill:#2B4185;">
	<!ENTITY st1 "fill:#C63932;">
	<!ENTITY st2 "fill:#FFA600;">
	<!ENTITY st3 "fill:#FFFFFF;">
]>
<svg version="1.1" id="Layer_1" xmlns="http://www.w3.org/2000/svg" xmlns:xlink="http://www.w3.org/1999/xlink" x="0px" y="0px"
	 width="259.021px" height="219.096px" viewBox="0 0 259.021 219.096" style="enable-background:new 0 0 259.021 219.096;"
	 xml:space="preserve">
<path style="&st0;" d="M131.85,55.093c-0.119-1.37-0.281-2.732-0.48-4.077c-0.352-2.369-0.721-4.905-1.466-7.188
	c-2.637-8.081-7.688-15.222-13.499-21.339c-2.172-2.284-4.472-4.457-6.847-6.55c-3.741-2.944-7.956-5.58-10.67-9.599
	c-2.011-2.98-3.737-7.544-8.229-6.047c-0.979,0.979-0.734,3.184-1.12,5.225c-0.078,0.407-0.181,0.81-0.334,1.188
	c-0.113,4.555-9.515,1.421-7.947,6.122c0.345,1.034,2.948,2.337,3.817,2.877c4.228,2.626,8.756,4.768,12.78,7.715
	c2.317,1.699,4.528,3.54,6.595,5.538c3.968,3.84,7.7,8.275,9.364,13.63c0.868,2.788,1.777,6.776,1.347,9.703
	c-0.403,2.744-1.27,5.385-2.578,7.774c-0.786,0.764-1.712,1.45-2.805,2.041c-1.125,0.608-2.348,1.055-3.639,1.368
	c-1.287,0.32-2.643,0.507-4.027,0.603c-2.594,0.229-5.457-0.047-8.297-0.515c-1.109-0.184-2.212-0.402-3.309-0.664
	c-6.111-2.354-12.658-5.527-19.37-7.791c-1.679-0.565-3.367-1.075-5.067-1.501c-3.822-0.959-7.66-1.932-11.631-1.847
	c-3.898,0.083-7.656,1.189-11.155,2.867c-6.913,3.315-13.603,8.485-16.762,15.648c-3.585,8.128-4.336,17.798-4.555,26.59
	c-0.068,2.795,0.032,5.594,0.381,8.37c0.301,2.405,0.732,4.794,1.278,7.156c0.645,2.783,1.435,5.532,2.325,8.248
	c0.749,2.246,1.573,4.482,2.473,6.726c0.437,0.74,0.822,1.482,1.178,2.229c0.355,0.744,0.681,1.49,0.993,2.259
	c8.007,18.071,4.041,47.582,18.729,59.094c0.385,0.164,0.748,0.391,1.068,0.688c0.064,0.062,0.101,0.097,0.135,0.134
	c0.046,0.022,0.092,0.045,0.17,0.09c0.189,0.113,0.384,0.219,0.581,0.315c0.127,0.062,0.208,0.103,0.262,0.129
	c0.052,0.019,0.094,0.033,0.176,0.062c0.04,0.016,0.081,0.031,0.123,0.045c0.7,0.086,1.409,0.172,2.124,0.203
	c0.878,0.041,1.76,0.02,2.605-0.06c0.62-0.057,1.266-0.143,1.938-0.262c0.673-0.119,1.371-0.27,2.097-0.453
	c0.294-0.062,0.604-0.155,0.902-0.233c6.752-1.74,6.761-14.97,8.034-20.379c1.292-5.479,1.838-11.438,4.917-16.293
	c2.637-4.156,6.34-8.478,10.862-10.609c3.012-1.42,11.22,0.363,12.93-2.717c0.305-0.546-2.227-3.331-3.846-5.654
	c-0.18-0.258-0.348-0.51-0.5-0.754c-1.314-2.076,0.15-3.669,0.881-5.432c-0.35,0.015-0.7,0.024-1.048,0.065
	c-0.248,0.028-0.484-0.014-0.708-0.091c-0.16,0.132-0.316,0.265-0.485,0.39c-0.218,0.163-0.441,0.321-0.669,0.479
	c-1.887,1.559-3.887,3.559-5.918,4.655c-0.186,0.115-0.37,0.233-0.555,0.351c-1.112,0.695-2.281,1.283-3.535,1.699
	c-5.758,1.912-12.449-1.162-14.917-6.66c-1.932-4.301,3.661-7.366,6.728-8.848c2.318-1.12,4.8-1.851,7.29-2.479
	c4.495-1.133,9.124-1.967,13.308-4.059c8.631-4.32,16.218-11.077,22.475-18.354c1.729-2.009,3.317-4.136,4.765-6.354
	c2.428-3.729,4.629-7.625,6.61-11.608c2.283-4.583,3.462-9.628,3.822-14.724C132.154,61.185,132.115,58.135,131.85,55.093z"/>
<path style="&st0;" d="M57.18,122.538c0,0-0.493,0.537-1.316,1.46c-0.819,0.945-1.962,2.275-3.271,3.796
	C47.36,133.875,39.509,143,39.509,143l0,0L0,117.91l22.15-23.929c0,0,7.015,1.16,14.029,2.317c2.338,0.381,4.676,0.763,6.753,1.093
	c2.876,0.096,5.007,0.524,6.488,1.642c1.482,1.117,2.314,2.921,2.594,5.769c0.515,1.768,1.095,3.755,1.676,5.742
	c0.582,1.989,1.162,3.988,1.682,5.771C56.406,119.88,57.18,122.538,57.18,122.538z"/>
<path style="&st0;" d="M94.902,164.032v-20.115c0-2.849-0.952-4.848-2.847-5.992c-0.166-0.178-0.322-0.354-0.468-0.526
	c-0.145-0.174-0.279-0.346-0.401-0.516c-0.236-0.328-0.442-0.679-0.61-1.042c-0.084-0.182-0.159-0.366-0.223-0.555
	c-1.062-3.091,1.968-5.09,4.011-6.77c1.618-1.33,2.935-2.832,4.345-4.363c1.186-1.286,2.602-2.491,4.447-2.491
	c2.846,0,4.171,3.424,3.984,10.271v12.41c-0.191,5.992-0.285,10.271-0.285,12.841c0,1.198,0.067,2.219,0.205,3.058
	c0.045,0.279,0.103,0.536,0.203,0.751c0.386,0.828,1.184,1.148,2.049,1.093c0.846-0.055,1.62-0.408,2.355-0.805
	c1.156-0.621,2.328-1.174,3.527-1.706c0.077-0.035,0.79-0.286,0.79-0.404c0,1.95,0.057,4.055-0.66,5.899
	c-0.562,1.447-1.317,2.827-2.171,4.121c-0.771,1.168-1.611,2.323-2.66,3.26c-0.565,0.506-1.205,0.979-1.869,1.348
	c-0.715,0.397-1.53,0.733-2.327,0.931c-1.096,0.271-2.297,0.431-3.427,0.431C97.556,175.159,94.902,171.455,94.902,164.032z
	 M116.532,156.684c0-0.146,0-0.31,0-0.488c0-5.552,0-25.529,0-25.547c0-1.854-0.539-3.71,0.292-5.482
	c0.569-1.213,1.643-2.312,2.977-2.612c1.528-0.349,3.107-0.142,4.651-0.048c1.367,0.082,2.761,0.053,3.958,0.824
	c1.189,0.77,1.582,2.099,1.5,3.467c0,0.855-0.098,2.287-0.285,4.279c-0.76,5.992-1.138,12.84-1.138,20.544
	c0,2.143,0.479,3.881,1.441,5.217c0.213,0.296,0.441,0.584,0.768,0.763c0.535,0.293,1.085,0.82,1.478,1.282
	c0.37,0.435,0.626,0.939,0.761,1.494c0.258,1.071,0.192,2.318-0.318,3.309c-0.287,0.557-0.74,1.143-1.223,1.545
	c-0.16,0.133-0.33,0.259-0.514,0.375c-0.383,0.244-0.944,0.322-1.362,0.521c-0.447,0.214-0.885,0.479-1.234,0.832
	c-0.847,0.855-0.699,1.991-0.673,3.098c0.041,1.735,0.005,4.138-1.952,4.848c-0.536,0.194-1.156,0.256-1.723,0.256
	c-0.217,0-0.428-0.012-0.634-0.036c-3.166-0.37-5.224-3.586-6.171-9.648C116.683,162.628,116.532,159.564,116.532,156.684z"/>
<path style="&st0;" d="M138.162,153.333v-9.844c0-2.568-0.854-4.848-2.561-6.848c-0.952-1.19-1.836-2.722-1.773-4.302
	c0.019-0.459,0.174-0.949,0.386-1.354c1.131-2.165,3.485-1.59,5.407-1.971c2.27-0.448,2.296-2.49,2.849-4.302
	c0.683-2.244,3.466-4.214,5.393-2.047c1.289,1.448,1.736,4.359,1.975,6.19c0.261,2.001,0.279,4.057,0.279,6.071
	c0,0,0,33.781,0,33.812c0,1.546,0.086,3.05-0.803,4.401c-0.776,1.18-1.951,1.771-3.33,1.947c-3.01,0.386-6.941,0.303-7.86-3.231
	c-0.228-0.872-0.245-1.794-0.245-2.689v-7.274C138.064,158.187,138.162,155.332,138.162,153.333z M172.316,136.641v15.835
	c0,3.144,0.756,5.424,2.274,6.848c1.14,0.856,1.709,2,1.709,3.424c-1.709,8.278-4.555,12.411-8.538,12.411
	c-4.744,0-7.214-4.988-7.4-14.979v-20.972c0.217-2.281-0.248-3.863-1.396-4.75c-0.143-0.109-0.297-0.21-0.465-0.299
	c-1.518,0.01-4.518,0.01-6.518,1.01c0-2,0-4,0.762-6.072c0.069-0.247,0.146-0.487,0.228-0.723c1.387-3.985,4.417-6.225,9.098-6.714
	C168.709,121.95,172.125,126.945,172.316,136.641z"/>
<path style="&st2;" d="M242.331,114.622c-1.253,0.01-2.073,0.753-2.523,2.293c-0.401,1.368,0.313,2.974,1.022,4.113
	c0.93,1.498,2.324,3.575,0.781,5.193c-1.042,1.092-2.628,1.627-3.851,2.479c-0.647,0.451-1.245,1.153-1.438,1.941
	c-0.392,1.597,0.931,3.295,2.236,4.02c1.303,0.723,2.819,0.689,4.223,1.069c0.788,0.214,1.585,0.622,2.164,1.208
	c1.834,1.855,2.279,4.444,2.758,6.897c0.353,1.794,0.552,3.871,0.604,6.232c0.083,3.827-3.605,23.414-10.152,13.462
	c-2.627-3.994-3.271-8.924-2.531-13.577c0.668-4.201,3.252-9.137,0.683-13.167c-1.526-2.395-5.705-1.153-7.459-0.057
	c-12.324,7.708-10.093,27.574,1.473,34.839c7.922,4.974,17.775,3.895,23.363-3.91c2.021-2.823,3.239-6.163,3.961-9.531
	c0.742-3.479,1.279-7.057,1.367-10.616c0.087-3.587-0.298-7.343-0.759-10.896c-0.385-2.951-1.004-5.876-2.022-8.677
	c-1.48-4.066-3.777-8.422-7.526-10.816c-1.58-1.01-3.284-1.785-5.087-2.301C243.145,114.686,242.719,114.62,242.331,114.622z"/>
<path style="&st3;" d="M75.73,91.293c-1.499,2.701,0.999,6.652,6.558,9.728c6.786,3.752,15.557,4.771,19.588,2.276
	c1.196-0.736,1.827-1.706,1.966-2.794L75.73,91.293z"/>
<path style="&st1;" d="M217.825,116.911c-2.053-1.633-4.771-4.626-4.123-7.515c0.58-2.591,4.112-3.729,6.29-2.432
	c1.478,0.882,2.117,2.58,2.744,4.091c0.352,0.848,0.754,1.672,1.127,2.51c0.119,0.269,0.243,0.535,0.373,0.803
	c0.389,0.8,0.828,1.592,1.336,2.37c0.146,0.238,0.302,0.474,0.463,0.704c1.297,1.845,3.055,3.414,5.324,3.574
	c-1.438-0.103-2.84-0.15-4.26-0.437c-2.424-0.486-4.963-1.164-7.168-2.306C219.18,117.884,218.475,117.427,217.825,116.911z"/>
<path style="&st0;" d="M226.82,88.164c-1.926-3.49-5.719-8.317-10.209-8.084c-4.026,0.212-6.626,5.215-5.236,8.804
	c0.945,2.438,3.329,3.824,5.431,5.148c1.183,0.743,2.312,1.551,3.474,2.323c0.372,0.247,0.741,0.5,1.104,0.764
	c1.102,0.785,2.177,1.64,3.215,2.6c0.317,0.28,0.632,0.571,0.938,0.873c2.435,2.408,4.336,5.439,4.001,8.882
	c0.213-2.182,0.493-4.292,0.428-6.489c-0.111-3.754-0.482-7.733-1.636-11.32C227.938,90.438,227.431,89.267,226.82,88.164z"/>
<path style="&st2;" d="M237.552,94.896c1.719-3.829,5.285-9.224,10.02-9.362c4.245-0.125,7.404,4.903,6.255,8.792
	c-0.781,2.636-3.164,4.299-5.256,5.869c-1.176,0.881-2.293,1.829-3.445,2.739c-0.367,0.291-0.733,0.588-1.096,0.895
	c-1.087,0.919-2.142,1.912-3.146,3.006c-0.313,0.324-0.616,0.656-0.91,0.998c-2.347,2.737-4.084,6.083-3.436,9.667
	c-0.413-2.269-0.89-4.463-1.007-6.775c-0.203-3.948-0.159-8.157,0.738-12.021C236.579,97.379,237.008,96.108,237.552,94.896z"/>
<path style="&st1;" d="M206.88,191.707c-2.466-2.625-5.384-5.193-7.278-8.272c-2.292-3.724-1.896-8.045,1.621-10.794
	c3.662-2.863,6.775-3.178,9.337-0.937c1.593,1.694,1.713,3.758,0.365,6.188c-0.86,1.555-1.602,3.916-1.001,5.668
	c0.853,2.482,3.697,3.981,5.705,5.426c5.732,4.12,11.021,11.239,7.441,18.423c-2.243,4.503-6.396,7.925-11.005,9.812
	c-1.832,0.748-3.74,1.351-5.698,1.663c-7.68,1.229-16.072-3.034-20.76-9.024c-2.982-3.812-3.941-7.864-3.425-12.644
	c0.277-2.571,0.554-5.391,1.521-7.809c0.113-0.281,0.234-0.557,0.368-0.824c0.977-1.741,2.235-2.594,3.583-2.743
	c0.193-0.021,0.389-0.024,0.586-0.015c0.762,0.041,1.522,0.938,2.064,1.407c1.118,0.968,2.239,1.811,3.783,1.665
	c1.721-0.163,2.876-1.692,4.49-1.943c4.051-0.63,1.588,5.239,0.601,6.678c-1.109,1.616-2.928,2.296-4.254,3.674
	c-2.43,2.525-4.221,7.32-1.139,10.184c4.811,4.466,12.428,0.517,15.336-4.264c1.096-1.801,1.779-4.027,1.242-6.111
	C209.822,195.002,208.34,193.26,206.88,191.707z"/>
<path style="&st1;" d="M191.598,136.977c0,1.86-0.316,3.682-0.357,5.537c-0.147,6.74,1.381,14.843,6.372,19.026
	c1.444,1.211,3.843,1.752,5.255,0.234c1.351-1.45,1.496-4.396,1.496-6.4c0-5.5-0.584-12.119-4.146-16.188
	c-1.125-1.285-2.752-3.026-4.242-3.701c-1.459-0.66-2.188-1.656-2.188-2.984c0-2.161,1.622-4.631,2.525-6.413
	c-0.396,0.685-0.796,1.366-1.166,2.069c1.089-2.069,2.223-4.879,4.144-6.059c2.341-1.438,5.413,0.26,7.584,1.41
	c1.71,0.906,3.209,2.222,4.501,3.8c2.911,3.555,4.864,8.04,5.288,12.942c0.093,1.078,0.146,2.162,0.162,3.248
	c0.017,1.086-0.006,2.174-0.065,3.259c-0.062,1.084-0.16,2.166-0.299,3.24c-0.138,1.074-0.312,2.142-0.524,3.195
	c-0.516,2.544-1.294,4.995-2.495,7.213c-2.082,3.844-5.221,7.483-8.885,9.205c-4.987,2.343-9.709,2.536-14.765,0.475
	c-1.901-0.775-3.657-1.923-5.225-3.396c-3.023-2.85-5.744-6.633-6.623-11.122c-0.32-1.634-0.426-3.313-0.439-4.984
	c-0.03-3.484,0.042-6.936,1.578-10.035c1.252-2.524,3.129-4.776,5.338-6.175c1.104-0.697,2.982-1.872,4.261-1.872
	C190.623,132.5,191.597,133.993,191.598,136.977z"/>
</svg>
